# xmcd
#
# Track frame offsets:
#	150
#	28452
#	43741
#
# Disc length: 723 seconds
#
# Revision: 0
# Processed by: cddbd v1.4PL0 Copyright (c) Steve Scherf et al.
# Submitted via: dBpowerAMP V4.0
#
DISCID=2502d103
DTITLE=Welcome The Plague Year - Demo CD
DYEAR=2003
DGENRE=Punk Rock
TTITLE0=Into Twilight
TTITLE1=Craft Messenger
TTITLE2=Quiet.Still.Dead
EXTD=
EXTT0=
EXTT1=
EXTT2=
PLAYORDER=
